<?xml version="1.0" encoding="utf-8"?>
<!-- Generator: Adobe Illustrator 27.9.4, SVG Export Plug-In . SVG Version: 9.03 Build 54784)  -->
<svg version="1.1" id="Warstwa_1" xmlns="http://www.w3.org/2000/svg" xmlns:xlink="http://www.w3.org/1999/xlink" x="0px" y="0px"
	 viewBox="0 0 609.72 585.24" style="enable-background:new 0 0 609.72 585.24;" xml:space="preserve">
<style type="text/css">
	.st0{fill:#FFFFFF;}
	.st1{fill:#EFBBB0;}
	.st2{fill:#E16449;}
</style>
<g id="logotyp">
	<g>
		<path id="ksztalt" class="st0" d="M304.86,0C136.49,0,0,136.49,0,304.86c0,125.82,88.63,280.38,165.01,280.38
			c59.87,0,83.19-53.56,139.84-53.56c56.66,0,80.49,53.61,139.84,53.56c76.79,0,165.01-154.56,165.01-280.38
			C609.72,136.49,473.23,0,304.86,0z"/>
		<g id="omega">
			<g>
				<path class="st1" d="M451.67,422.57h-77.22c-16.02,0-29-12.98-29-29s12.98-29,29-29h77.22c16.02,0,29,12.98,29,29
					S467.68,422.57,451.67,422.57z"/>
				<path class="st1" d="M235.18,422.57h-77.13c-16.02,0-29-12.98-29-29s12.98-29,29-29h77.13c16.02,0,29,12.98,29,29
					S251.19,422.57,235.18,422.57z"/>
			</g>
			<path class="st2" d="M235.15,422.58c-5.86,0-11.77-1.77-16.9-5.45c-38.61-27.74-61.66-72.65-61.66-120.13
				c0-81.52,66.32-147.84,147.84-147.84c81.52,0,147.84,66.32,147.84,147.84c0,47.34-22.94,92.17-61.36,119.92
				c-12.98,9.38-31.11,6.45-40.49-6.53c-9.38-12.98-6.45-31.11,6.53-40.49c23.37-16.88,37.32-44.12,37.32-72.9
				c0-49.54-40.3-89.84-89.84-89.84c-49.54,0-89.84,40.3-89.84,89.84c0,28.86,14.02,56.16,37.5,73.03
				c13.01,9.34,15.98,27.46,6.63,40.47C253.07,418.38,244.17,422.58,235.15,422.58z"/>
		</g>
	</g>
</g>
</svg>
