<?xml version="1.0" encoding="utf-8"?>
<!-- Generator: Adobe Illustrator 27.9.4, SVG Export Plug-In . SVG Version: 9.03 Build 54784)  -->
<svg version="1.1" id="Warstwa_1" xmlns="http://www.w3.org/2000/svg" xmlns:xlink="http://www.w3.org/1999/xlink" x="0px" y="0px"
	 viewBox="0 0 2928.09 585.24" style="enable-background:new 0 0 2928.09 585.24;" xml:space="preserve">
<style type="text/css">
	.st0{fill:#25242E;}
	.st1{fill:#E16449;}
	.st2{fill:#EFBBB0;}
	.st3{fill:#FFFFFF;}
</style>
<g id="logotyp">
	<g>
		<path class="st0" d="M829.79,194.34c-13.5-0.22-26.91,2.27-39.43,7.31c-12.52,5.04-23.89,12.54-33.45,22.05
			c-10.1,9.81-18.1,21.55-23.53,34.52c-5.43,12.97-8.17,26.9-8.06,40.95c0,25.55,0,51.62,0,76.81c0,25.19,0,51.23,0,76.87
			c0,6.05,2.41,11.85,6.71,16.13c4.29,4.28,9.72,6.58,16.21,6.58c5.95,0,11.91-2.5,16.21-6.78c4.29-4.28,6.71-10.08,6.71-16.13
			c0-25.48,0-51.23,0-76.51c0-25.29,0-51.42,0-77.13c-0.04-7.97,1.52-15.86,4.6-23.21c3.08-7.35,7.61-14.01,13.32-19.58
			c5.2-5.25,11.4-9.4,18.25-12.2c6.85-2.8,14.19-4.19,21.59-4.09c23.36,0.42,55.57,22.26,54.95,56.83
			c0.02,6.01-1.18,11.95-3.52,17.48c-2.34,5.53-5.78,10.54-10.11,14.71c-11.99,10.7-27.73,17.68-43.8,16.9
			c-6.07-0.11-11.94,2.18-16.31,6.38c-4.37,4.2-6.89,9.96-7.01,16.01c-0.11,6.05,2.19,11.9,6.41,16.25
			c2.09,2.16,4.58,3.88,7.34,5.08c2.75,1.2,5.72,1.84,8.73,1.9c29.73,0.46,56.82-10.87,76.44-29.64
			c8.65-8.36,15.55-18.34,20.29-29.37c4.74-11.03,7.24-22.89,7.35-34.89C930.67,237.85,877.84,195.26,829.79,194.34z"/>
		<path class="st0" d="M1348.8,220.34c-15.29-14.57-41.69-26-64.67-26c-25.8,0-49.89,9.47-67.95,26.12
			c-18.06,16.65-31.6,39.65-31.6,64.68c0,11.14,0.12,30.08,0,43.47c-0.12,13.41,0,24.13,0,40.07c0,6.05,2.41,11.85,6.71,16.13
			s10.12,6.68,16.19,6.68c6.07,0,11.9-2.4,16.19-6.68c4.3-4.28,6.71-10.08,6.71-16.13c0.26-15.94,0.03-26.82,0.29-39.95
			c0.25-13.13-0.05-26.21,0.25-41.81c0.22-11.13,7.16-24.79,16.74-33.47c9.58-8.68,22.95-13.45,35.9-13.45
			c13.08,0,25.57,5.47,34.37,13.59c9.13,8.6,16.23,20.91,16.39,33.43c0.27,20.5,0,81.66,0,81.66c0,6.05,2.41,11.85,6.71,16.13
			c4.3,4.28,10.12,6.68,16.19,6.68c3.02,0.02,6.01-0.55,8.81-1.69c2.79-1.14,5.52-2.47,7.66-4.59c2.15-2.12,4.28-4.85,5.44-7.62
			c1.15-2.78,2.01-6.05,2.01-9.06c0-11.83,0-19.69,0-31.52c0-19.42,0.86-31.73,0-51.63C1379.73,252.65,1363.37,234.23,1348.8,220.34
			z"/>
		<path class="st0" d="M1496.81,276.2c-4.29,4.28-6.7,10.08-6.7,16.13c0,6.05,2.41,11.85,6.7,16.13c4.3,4.28,10.12,6.68,16.19,6.68
			h73.04c3.02,0,6.02-0.6,8.81-1.76c2.79-1.16,5.33-2.86,7.45-5c2.13-2.14,3.81-4.68,4.95-7.48c1.14-2.79,1.71-5.79,1.68-8.8
			c-0.31-25.7-10.65-50.27-28.81-68.51c-18.17-18.25-42.61-29.25-69.09-29.25c-27.48,0-51.53,10.44-70,28.71
			c-9.27,9.02-16.62,19.81-21.62,31.71c-5,11.91-7.55,24.69-7.5,37.6c0.14,13.1,2.9,26.04,8.1,38.07c5.2,12.03,12.76,22.9,22.22,32
			c9.27,9.07,20.28,16.19,32.37,20.94c12.08,4.75,23.43,7.5,38,8.09c3.93,0.16,15.73,0,15.73,0h20.85c11.61,0,23.82,0.02,36.65,0.02
			c3.01,0.01,5.99-0.52,8.78-1.65c2.78-1.13,5.31-2.8,7.45-4.91c2.13-2.11,3.83-4.62,4.99-7.38c1.16-2.76,1.77-7.09,1.78-10.09
			c0.01-3-0.57-5.96-1.71-8.74c-1.14-2.77-2.81-5.29-4.93-7.42c-2.11-2.13-4.63-3.82-7.4-4.98c-2.78-1.16-5.75-1.76-8.75-1.77
			c-13.15,0-25.48,0-37.06,0s-22.43,0-36.85,0c-6.01,0-14.31-1.06-20.78-3.61c-6.46-2.55-12.35-6.36-17.31-11.22
			c-5.09-4.86-9.15-10.68-11.96-17.12c-2.8-6.44-4.3-13.37-4.39-20.39c-0.03-6.83,1.33-13.59,3.99-19.89
			c2.65-6.3,6.54-12,11.45-16.77c5.89-5.91,13.12-10.33,21.07-12.89c7.96-2.56,16.42-3.18,24.67-1.81
			c8.25,1.37,16.05,4.69,22.75,9.68c6.7,4.99,12.09,11.5,15.74,19H1513C1506.93,269.52,1501.11,271.92,1496.81,276.2z"/>
		<path class="st0" d="M1725.36,351.23c-4.3-4.28-10.79-6.75-15.92-6.79c-10.36-0.09-13.66,0.6-18.47-3.11
			c-1.96-1.52-3.44-3.31-4.35-5.61c-0.92-2.3-1.33-4.76-1.32-7.24c0.18-49.94,0-196.09,0-196.09c0-6.05-2.41-11.85-6.71-16.13
			c-4.3-4.28-10.12-6.68-16.19-6.68c-6.07,0-11.9,2.4-16.19,6.68s-6.71,10.08-6.71,16.13v196.05c0,7.27,1.6,32.16,22.28,48.88
			c11.13,8.63,22.54,14.23,39.07,14.37c13.9,0.11,20.48-2.69,24.78-6.97c4.29-4.28,6.71-11.42,6.71-17.46
			C1732.34,361.2,1729.65,355.51,1725.36,351.23z"/>
		<path class="st1" d="M2899.58,222.99c-8.68-8.95-19.06-16.09-30.53-21c-11.47-4.92-23.81-7.51-36.3-7.64h-0.95
			c-25.09,0.02-49.21,9.68-67.35,26.95c-18.14,17.28-28.9,43.09-30.06,68.06c-0.42,12.8,1.77,27.8,6.41,39.74
			c4.65,11.94,11.67,22.83,20.64,32.01c9.11,9.54,20.06,17.15,32.2,22.37c12.13,5.22,25.31,7.92,38.52,8
			c6.44,0.04,12-2.4,16.29-6.68c4.3-4.28,6.71-10.08,6.71-16.13c0-6.05-2.41-11.85-6.71-16.13c-4.29-4.28-10.11-6.68-16.19-6.68
			c-7.09-0.03-14.11-1.49-20.62-4.29c-6.51-2.8-12.4-6.88-17.29-12c-4.73-4.79-8.43-10.47-10.9-16.72
			c-2.47-6.25-3.64-15.17-3.46-21.88c0.95-26.53,22.94-50.96,51.9-50.96c6.38,0,13.1,1.43,19.04,3.99
			c5.93,2.56,11.3,6.26,15.78,10.9c5.08,5.25,9.06,11.45,11.72,18.25c2.65,6.8,3.91,14.05,3.72,21.34v74.18
			c0,6.05,2.42,11.85,6.71,16.13c4.3,4.28,10.12,6.68,16.19,6.68c3.03,0.02,6.03-0.56,8.83-1.71c2.8-1.15,5.35-2.84,7.49-4.97
			c2.15-2.13,3.84-4.67,4.99-7.46c1.15-2.79,1.73-5.78,1.72-8.8v-73.85c0.25-13.23-2.13-26.39-7.02-38.69
			C2916.16,243.68,2908.86,232.46,2899.58,222.99z"/>
		<path class="st0" d="M1125.46,222.99c-8.68-8.95-19.06-16.09-30.53-21c-11.47-4.92-23.81-7.51-36.3-7.64h-0.95
			c-25.09,0.02-49.21,9.68-67.35,26.95c-18.14,17.28-28.9,43.09-30.06,68.06c-0.42,12.8,1.77,27.8,6.41,39.74
			c4.65,11.94,11.67,22.83,20.64,32.01c9.11,9.54,20.06,17.15,32.2,22.37c12.13,5.22,25.31,7.92,38.52,8
			c6.44,0.04,12-2.4,16.29-6.68c4.3-4.28,6.71-10.08,6.71-16.13c0-6.05-2.41-11.85-6.71-16.13c-4.29-4.28-10.11-6.68-16.19-6.68
			c-7.09-0.03-14.11-1.49-20.62-4.29c-6.51-2.8-12.4-6.88-17.29-12c-4.73-4.79-8.43-10.47-10.9-16.72
			c-2.47-6.25-3.64-15.17-3.46-21.88c0.95-26.53,22.94-50.96,51.9-50.96c6.38,0,13.1,1.43,19.04,3.99
			c5.93,2.56,11.3,6.26,15.78,10.9c5.08,5.25,9.06,11.45,11.72,18.25c2.65,6.8,3.91,14.05,3.72,21.34v74.18
			c0,6.05,2.42,11.85,6.71,16.13c4.3,4.28,10.12,6.68,16.19,6.68c3.03,0.02,6.03-0.56,8.83-1.71c2.8-1.15,5.35-2.84,7.49-4.97
			c2.15-2.13,3.84-4.67,4.99-7.46c1.15-2.79,1.73-5.78,1.72-8.8v-73.85c0.25-13.23-2.13-26.39-7.02-38.69
			C1142.04,243.68,1134.75,232.46,1125.46,222.99z"/>
		<path class="st1" d="M2356.49,276.2c-4.29,4.28-6.7,10.08-6.7,16.13c0,6.05,2.41,11.85,6.7,16.13c4.3,4.28,10.12,6.68,16.19,6.68
			h73.04c3.02,0,6.02-0.6,8.81-1.76c2.79-1.16,5.33-2.86,7.45-5c2.13-2.14,3.81-4.68,4.95-7.48c1.14-2.79,1.71-5.79,1.68-8.8
			c-0.31-25.7-10.65-50.27-28.81-68.51c-18.17-18.25-42.61-29.25-69.09-29.25c-27.48,0-51.53,10.44-70,28.71
			c-9.27,9.02-16.62,19.81-21.62,31.71c-5,11.91-7.55,24.69-7.5,37.6c0.14,13.1,2.9,26.04,8.1,38.07c5.2,12.03,12.76,22.9,22.22,32
			c9.27,9.07,20.28,16.19,32.37,20.94c12.08,4.75,23.43,7.5,38,8.09c3.93,0.16,15.73,0,15.73,0h20.85c11.61,0,23.82,0.02,36.65,0.02
			c3.01,0.01,5.99-0.52,8.78-1.65c2.78-1.13,5.31-2.8,7.45-4.91c2.13-2.11,3.83-4.62,4.99-7.38c1.16-2.76,1.77-7.09,1.78-10.09
			c0.01-3-0.57-5.96-1.71-8.74c-1.14-2.77-2.81-5.29-4.93-7.42c-2.11-2.13-4.63-3.82-7.4-4.98c-2.78-1.16-5.75-1.76-8.75-1.77
			c-13.15,0-25.48,0-37.06,0c-11.58,0-22.43,0-36.85,0c-6.01,0-14.31-1.06-20.78-3.61c-6.46-2.55-12.35-6.36-17.31-11.22
			c-5.09-4.86-9.15-10.68-11.96-17.12c-2.8-6.44-4.3-13.37-4.39-20.39c-0.03-6.83,1.33-13.59,3.99-19.89
			c2.65-6.3,6.54-12,11.45-16.77c5.89-5.91,13.12-10.33,21.07-12.89c7.96-2.56,16.42-3.18,24.67-1.81
			c8.25,1.37,16.05,4.69,22.75,9.68c6.7,4.99,12.09,11.5,15.74,19h-44.36C2366.61,269.52,2360.78,271.92,2356.49,276.2z"/>
		<path class="st1" d="M2164.64,194.43c-20.79,0-39.66,8.37-53.44,21.9c-13.78-13.53-32.65-21.9-53.44-21.9
			c-42.1,0-76.34,34.25-76.34,76.34v97.8c0,12.65,10.25,22.9,22.9,22.9s22.9-10.25,22.9-22.9v-97.8c0-16.84,13.7-30.54,30.54-30.54
			c16.84,0,30.54,13.7,30.54,30.54v62.34c0,12.65,10.25,22.9,22.9,22.9s22.9-10.25,22.9-22.9v-62.34c0-16.84,13.7-30.54,30.54-30.54
			s30.54,13.7,30.54,30.54v97.77c0,12.65,10.25,22.9,22.9,22.9s22.9-10.25,22.9-22.9v-97.77
			C2240.99,228.68,2206.74,194.43,2164.64,194.43z"/>
		<path class="st1" d="M1852.24,391.51c-54.33,0-98.54-44.2-98.54-98.54c0-54.33,44.2-98.54,98.54-98.54
			c54.33,0,98.54,44.2,98.54,98.54C1950.78,347.3,1906.58,391.51,1852.24,391.51z M1852.24,240.23c-29.08,0-52.74,23.66-52.74,52.74
			c0,29.08,23.66,52.74,52.74,52.74c29.08,0,52.74-23.66,52.74-52.74C1904.98,263.89,1881.32,240.23,1852.24,240.23z"/>
		<path class="st1" d="M2695.6,258.33c-5.43-12.97-13.43-24.71-23.53-34.52c-9.55-9.51-20.93-17.01-33.45-22.05
			c-12.52-5.04-25.93-7.53-39.43-7.31c-48.05,0.91-100.88,43.5-99.87,103.24c0.11,12,2.61,23.86,7.35,34.89
			c4.75,11.03,11.64,21.01,20.29,29.37c19.62,18.77,46.71,30.09,76.44,29.64c3.01-0.06,5.98-0.7,8.73-1.9
			c2.76-1.2,5.25-2.92,7.34-5.08c4.21-4.36,6.52-10.2,6.41-16.25c-0.11-6.05-2.63-11.81-7.01-16c-4.37-4.2-10.24-6.49-16.31-6.38
			c-16.07,0.78-31.81-6.2-43.8-16.9c-4.33-4.18-7.77-9.18-10.11-14.71c-2.34-5.53-3.54-11.48-3.52-17.48
			c-0.62-34.57,31.59-56.41,54.95-56.83c7.4-0.1,14.75,1.29,21.59,4.09c6.85,2.8,13.05,6.95,18.25,12.2
			c5.71,5.57,10.24,12.23,13.32,19.58c3.08,7.35,4.64,15.24,4.6,23.21c0,25.71,0,52.81,0,78.1c0,29.15-23.59,52.66-52.74,52.66
			c-6.2,0-18.37-1.7-28.05-8.1c-6.11-4.04-10.57-4.38-13.48-4.37c-12.7,0-23,10.3-23,23c0,9.05,4.69,15.4,11.88,19.95
			c17.89,11.31,35.89,15.31,52.65,15.31c54.44,0,98.57-44.18,98.57-98.62c0-25.19,0-52.23,0-77.78
			C2703.77,285.23,2701.03,271.3,2695.6,258.33z"/>
	</g>
	<g>
		<path id="ksztalt" class="st1" d="M304.86,0C136.49,0,0,136.49,0,304.86c0,125.82,88.63,280.38,165.01,280.38
			c59.87,0,83.19-53.56,139.84-53.56c56.66,0,80.49,53.61,139.84,53.56c76.79,0,165.01-154.56,165.01-280.38
			C609.72,136.49,473.23,0,304.86,0z"/>
		<g id="omega">
			<g>
				<path class="st2" d="M451.67,422.57h-77.22c-16.02,0-29-12.98-29-29s12.98-29,29-29h77.22c16.02,0,29,12.98,29,29
					S467.68,422.57,451.67,422.57z"/>
				<path class="st2" d="M235.18,422.57h-77.13c-16.02,0-29-12.98-29-29s12.98-29,29-29h77.13c16.02,0,29,12.98,29,29
					S251.19,422.57,235.18,422.57z"/>
			</g>
			<path class="st3" d="M235.15,422.58c-5.86,0-11.77-1.77-16.9-5.45c-38.61-27.74-61.66-72.65-61.66-120.13
				c0-81.52,66.32-147.84,147.84-147.84c81.52,0,147.84,66.32,147.84,147.84c0,47.34-22.94,92.17-61.36,119.92
				c-12.98,9.38-31.11,6.45-40.49-6.53c-9.38-12.98-6.45-31.11,6.53-40.49c23.37-16.88,37.32-44.12,37.32-72.9
				c0-49.54-40.3-89.84-89.84-89.84c-49.54,0-89.84,40.3-89.84,89.84c0,28.86,14.02,56.16,37.5,73.03
				c13.01,9.34,15.98,27.46,6.63,40.47C253.07,418.38,244.17,422.58,235.15,422.58z"/>
		</g>
	</g>
</g>
</svg>
