<?xml version="1.0" encoding="utf-8"?>
<!-- Generator: Adobe Illustrator 16.0.0, SVG Export Plug-In . SVG Version: 6.00 Build 0)  -->
<!DOCTYPE svg PUBLIC "-//W3C//DTD SVG 1.1//EN" "http://www.w3.org/Graphics/SVG/1.1/DTD/svg11.dtd">
<svg version="1.1" xmlns="http://www.w3.org/2000/svg" xmlns:xlink="http://www.w3.org/1999/xlink" x="0px" y="0px"
     width="547.344px" height="187.672px" viewBox="0 0 547.344 187.672" enable-background="new 0 0 547.344 187.672"
     xml:space="preserve">
<g id="Layer_1">
	<g>
		<path fill="#32B77D" d="M277.702,72.828c6.387,0,11.859,2.271,16.414,6.811c4.555,4.541,6.832,10.019,6.832,16.436
			c0,6.417-2.277,11.896-6.832,16.436c-4.555,4.541-10.027,6.811-16.414,6.811c-6.445,0-11.932-2.27-16.458-6.811
			c-4.526-4.54-6.789-10.019-6.789-16.436c0-6.417,2.263-11.895,6.789-16.436C265.77,75.098,271.257,72.828,277.702,72.828z
			 M277.702,84.429c-3.209,0-5.951,1.146-8.229,3.438c-2.277,2.292-3.416,5.027-3.416,8.207c0,3.208,1.139,5.944,3.416,8.207
			c2.278,2.263,5.02,3.395,8.229,3.395c3.18,0,5.908-1.131,8.186-3.395c2.277-2.263,3.416-4.999,3.416-8.207
			c0-3.18-1.139-5.915-3.416-8.207C283.61,85.575,280.882,84.429,277.702,84.429z"/>
	</g>
    <g>
		<path fill="#32B77D" d="M371.155,96.203c0-6.417,2.262-11.895,6.788-16.436c4.526-4.54,10.012-6.811,16.457-6.811
			c6.388,0,11.859,2.271,16.414,6.811c4.555,4.541,6.832,10.019,6.832,16.436c0,1.604-0.573,2.972-1.719,4.104
			c-1.146,1.132-2.521,1.697-4.125,1.697H394.4c-1.633,0-3.008-0.565-4.125-1.697c-1.117-1.131-1.676-2.499-1.676-4.104
			c0-1.604,0.559-2.972,1.676-4.104c1.117-1.131,2.492-1.697,4.125-1.697h10.055c-2.263-3.896-5.614-5.844-10.055-5.844
			c-3.208,0-5.951,1.146-8.229,3.438c-2.277,2.292-3.416,5.027-3.416,8.207c0,3.208,1.139,5.944,3.416,8.207
			c2.277,2.263,5.021,3.395,8.229,3.395h17.402c1.604,0,2.979,0.573,4.125,1.719c1.146,1.146,1.719,2.507,1.719,4.082
			c0,1.633-0.573,3.015-1.719,4.146c-1.146,1.132-2.521,1.697-4.125,1.697H394.4c-6.445,0-11.931-2.27-16.457-6.811
			C373.417,108.099,371.155,102.62,371.155,96.203z"/>
        <path fill="#32B77D" d="M445.189,72.699c6.388,0,11.859,2.271,16.414,6.811c4.555,4.541,6.832,10.019,6.832,16.436v17.402
			c0,6.445-2.277,11.931-6.832,16.457s-10.026,6.789-16.414,6.789c-3.695,0-7.126-0.795-10.291-2.385
			c-3.166-1.59-5.809-3.717-7.928-6.381c0.057-0.114,0.014-0.229-0.129-0.344c-1.146-1.117-1.719-2.485-1.719-4.104
			c0-1.618,0.572-3,1.719-4.146h0.043c1.117-1.146,2.484-1.719,4.104-1.719c1.618,0,3,0.573,4.146,1.719
			c0.458,0.458,0.845,1.003,1.16,1.633c2.349,2.75,5.313,4.125,8.895,4.125c3.18,0,5.908-1.131,8.186-3.395
			c2.277-2.263,3.416-5.013,3.416-8.25V95.945c0-3.18-1.139-5.915-3.416-8.207c-2.277-2.292-5.006-3.438-8.186-3.438
			c-3.209,0-5.951,1.146-8.229,3.438c-2.277,2.292-3.416,5.027-3.416,8.207c0,3.208,1.139,5.944,3.416,8.207
			c2.277,2.263,5.02,3.395,8.229,3.395c1.575,0,2.936,0.573,4.082,1.719c1.146,1.146,1.719,2.507,1.719,4.082
			c0,1.633-0.573,3.015-1.719,4.146c-1.146,1.132-2.507,1.697-4.082,1.697c-6.445,0-11.932-2.27-16.457-6.811
			c-4.526-4.54-6.789-10.019-6.789-16.436c0-6.417,2.263-11.895,6.789-16.436C433.258,74.97,438.744,72.699,445.189,72.699z"/>
        <path fill="#32B77D" d="M495.979,72.914c6.388,0,11.859,2.271,16.414,6.811c4.555,4.541,6.832,10.019,6.832,16.436v17.402
			c0,1.633-0.573,3.015-1.719,4.146c-1.146,1.132-2.521,1.697-4.125,1.697c-1.604,0-2.973-0.565-4.104-1.697
			c-1.132-1.131-1.697-2.514-1.697-4.146V96.16c0-3.18-1.139-5.915-3.416-8.207c-2.277-2.292-5.006-3.438-8.186-3.438
			c-3.209,0-5.951,1.146-8.229,3.438c-2.277,2.292-3.416,5.027-3.416,8.207c0,3.208,1.139,5.944,3.416,8.207
			c2.277,2.263,5.02,3.395,8.229,3.395c1.575,0,2.936,0.573,4.082,1.719c1.146,1.146,1.719,2.507,1.719,4.082
			c0,1.633-0.573,3.015-1.719,4.146c-1.146,1.132-2.507,1.697-4.082,1.697c-6.445,0-11.932-2.27-16.457-6.811
			c-4.526-4.54-6.789-10.019-6.789-16.436c0-6.417,2.263-11.895,6.789-16.436C484.047,75.185,489.533,72.914,495.979,72.914z"/>
	</g>
</g>
    <g id="Layer_2">
	<g id="Layer_3">
		<g>
			<path fill="#32B77D" stroke="#32B77D" stroke-miterlimit="10" d="M358.183,77.921c-2.629-2.97-7.093-5.157-11.412-5.173
				c-0.91-0.003-4.804,0.392-6.73,1.32c-0.263,0.115-1.223,0.443-2.41,1.319c-0.062,0.047-0.118,0.092-0.18,0.14
				c-0.066,0.048-0.128,0.092-0.191,0.142c-0.272,0.223-0.561,0.455-0.859,0.698c-0.797,0.529-1.612,0.491-2.516-0.333
				c-2.581-2.358-5.828-3.297-10.146-3.244c-4.358,0.055-8.713,1.839-11.504,5.168c-4.366,5.208-4.626,10.956-4.626,18.733v16.28
				c0,1.583,0.341,2.959,1.071,3.936c0.939,1.233,2.415,2.347,4.007,2.347c1.556,0,2.913-0.548,4.009-1.647
				c1.102-1.098,1.648-2.807,1.648-4.392V96.69c-0.052-3.115-0.272-7.919,0.542-10.685c1.513-5.146,9.022-5.288,11.047-0.161
				c0.085,0.264,0.276,0.843,0.333,1.132c0.476,2.295-0.388,18.725,0.163,21.047c0.735,3.072,3.104,3.958,4.662,3.958
				s3.42-1.098,4.312-3.871c0.953-2.977,0.068-18.443,1.005-21.562c1.861-6.23,9.702-5.073,11.05-0.115
				c0.676,2.468,0.361,6.5,0.485,9.562v16.327c0,1.584,0.276,3.43,0.894,4.481c0.773,1.344,2.904,2.326,4.484,2.326
				c1.534,0,3.271-0.908,4.139-2.206c1.389-2.077,0.937-3.248,1.149-5.006V96.69C362.607,90.46,362.772,83.099,358.183,77.921z"/>
		</g>
	</g>
        <g>
		<g>
			<path fill="#fff" d="M11.292,141.031c-1.417,0-2.782-0.572-3.784-1.59c-1.001-1.015-1.567-2.396-1.567-3.833
				c0-6.097,0-12.283,0-18.27c0-5.986,0-12.183,0-18.256c-0.026-3.338,0.616-6.649,1.884-9.73c1.271-3.082,3.141-5.874,5.5-8.206
				c2.233-2.256,4.892-4.04,7.817-5.238c2.925-1.201,6.06-1.791,9.218-1.737c11.228,0.213,23.574,10.336,23.337,24.532
				c-0.026,2.855-0.609,5.67-1.72,8.293c-1.108,2.622-2.719,4.995-4.739,6.981c-4.589,4.459-10.918,6.815-17.867,6.708
				c-0.702-0.013-1.395-0.167-2.04-0.453s-1.228-0.695-1.717-1.208c-0.985-1.035-1.521-2.426-1.494-3.863
				c0.023-1.438,0.615-2.805,1.637-3.804c1.021-0.998,2.393-1.544,3.81-1.518c3.76,0.19,7.438-1.135,10.236-3.677
				c1.015-0.992,1.817-2.183,2.366-3.498c0.549-1.314,0.829-2.729,0.822-4.156c0.146-8.216-7.381-13.404-12.842-13.504
				c-1.727-0.027-3.444,0.306-5.045,0.972s-3.052,1.65-4.266,2.898c-1.334,1.324-2.393,2.905-3.111,4.655
				c-0.722,1.744-1.085,3.621-1.078,5.514c0,6.11,0,12.323,0,18.333s0,12.126,0,18.183c0,1.438-0.563,2.819-1.564,3.833
				c-1.005,1.019-2.366,1.591-3.787,1.591L11.292,141.031z"/>
		</g>
            <path fill="#fff" d="M153.488,121.89c-1.42,0-2.777-0.569-3.783-1.584c-1.005-1.018-1.566-2.396-1.566-3.833V96.193
			c-0.33-2.955-1.682-5.697-3.817-7.744c-2.13-2.043-4.909-3.258-7.84-3.431h-0.413c-3.028-0.007-5.947,1.135-8.187,3.198
			c-2.236,2.063-3.634,4.902-3.907,7.957c0,3.694,0,6.815-0.063,9.937c-0.063,3.121,0,6.356-0.063,10.143
			c0,1.438-0.562,2.819-1.564,3.833c-1.005,1.019-2.366,1.591-3.787,1.591c-1.418,0-2.779-0.572-3.78-1.591
			c-1.005-1.015-1.571-2.396-1.571-3.833c0-3.787,0-6.968,0.063-10.153c0.06-3.185,0.043-6.359,0.07-10.14v-0.393
			c0.436-5.81,3.028-11.234,7.248-15.194c4.223-3.954,9.764-6.146,15.517-6.136h0.762c4.113,0.166,8.103,1.438,11.564,3.687
			s6.266,5.397,8.123,9.118c1.092,2.186,1.83,4.542,2.176,6.968c0.629,4.585,0.207,9.417,0.207,14.036c0,2.809,0,5.614,0,8.426
			c0,0.712-0.141,1.421-0.41,2.083c-0.27,0.659-0.668,1.258-1.168,1.764c-0.502,0.502-1.098,0.901-1.75,1.171
			C154.896,121.76,154.194,121.896,153.488,121.89z"/>
            <path fill="#fff" d="M192.949,120.692h-3.678c-3.034,0.073-6.056-0.469-8.878-1.597c-2.821-1.132-5.397-2.822-7.563-4.979
			c-2.213-2.163-3.977-4.745-5.195-7.607c-1.215-2.855-1.856-5.93-1.893-9.044c-0.014-3.068,0.582-6.106,1.754-8.935
			c1.168-2.832,2.885-5.395,5.051-7.537c4.319-4.343,10.143-6.795,16.227-6.822h0.262c6.03,0.12,11.771,2.616,16.018,6.948
			c4.246,4.34,6.662,10.176,6.734,16.286c0.008,0.715-0.126,1.424-0.393,2.09c-0.266,0.666-0.658,1.268-1.158,1.777
			c-0.495,0.509-1.088,0.912-1.743,1.191c-0.649,0.273-1.351,0.416-2.057,0.416h-17.071c-1.418,0-2.781-0.569-3.783-1.587
			c-1.006-1.018-1.568-2.396-1.568-3.833s0.563-2.815,1.568-3.833c1.002-1.018,2.365-1.587,3.783-1.587h10.363
			c-0.853-1.78-2.11-3.331-3.682-4.516c-1.563-1.185-3.384-1.977-5.311-2.299c-1.93-0.326-3.903-0.18-5.764,0.429
			c-1.863,0.605-3.547,1.657-4.925,3.062c-1.148,1.135-2.057,2.489-2.679,3.986c-0.619,1.498-0.936,3.105-0.929,4.726
			c0.021,1.67,0.366,3.318,1.024,4.849c0.659,1.527,1.604,2.912,2.796,4.066c1.157,1.155,2.536,2.06,4.046,2.666
			c1.512,0.605,3.129,0.898,4.752,0.858h0.207c2.994,0,5.803,0,8.509,0s5.587,0,8.662,0c0.702,0.003,1.397,0.146,2.044,0.423
			c0.648,0.276,1.237,0.675,1.729,1.181c0.496,0.506,0.886,1.105,1.151,1.764c0.273,0.659,0.406,1.364,0.399,2.077
			c0,0.712-0.14,1.417-0.413,2.073c-0.272,0.655-0.672,1.254-1.168,1.753c-0.502,0.502-1.088,0.898-1.74,1.168
			c-0.652,0.27-1.344,0.409-2.049,0.402h-0.054c-2.999,0-5.797,0-8.509,0L192.949,120.692z"/>
            <path fill="#fff" d="M233.75,120.692c-3.294,0.086-6.516-0.985-9.121-3.035c-4.832-3.973-5.207-9.89-5.207-11.62V58.982
			c0-1.438,0.565-2.819,1.57-3.833c1.005-1.019,2.363-1.591,3.783-1.591c1.418,0,2.779,0.572,3.784,1.591
			c1.005,1.015,1.563,2.396,1.563,3.833v47.064c-0.006,0.589,0.1,1.175,0.313,1.721c0.214,0.545,0.533,1.048,0.939,1.471
			c0.785,0.489,1.71,0.702,2.629,0.605h1.764c1.417,0,2.781,0.569,3.783,1.584c1.005,1.019,1.567,2.396,1.567,3.833
			c0,1.438-0.563,2.819-1.567,3.834c-1.002,1.018-2.366,1.59-3.783,1.59h-2.018V120.692z"/>
            <path fill="#fff" d="M100.142,120.945c-1.417,0-2.779-0.569-3.78-1.584c-1.005-1.019-1.571-2.396-1.571-3.833V97.97
			c0.047-1.734-0.25-3.461-0.869-5.075c-0.619-1.614-1.551-3.092-2.739-4.336c-1.048-1.104-2.303-1.983-3.687-2.592
			c-1.391-0.609-2.882-0.928-4.393-0.948h-0.113c-6.339,0-11.85,5.274-12.073,11.581c-0.043,1.594,0.233,3.181,0.809,4.666
			c0.576,1.484,1.441,2.838,2.546,3.977c1.145,1.214,2.519,2.186,4.04,2.852c1.524,0.666,3.165,1.012,4.822,1.019
			c1.421,0,2.782,0.572,3.784,1.591c1.005,1.015,1.571,2.396,1.571,3.833s-0.565,2.815-1.571,3.833
			c-1.001,1.015-2.363,1.587-3.784,1.587h-0.043c-3.092-0.017-6.143-0.663-8.981-1.904c-2.835-1.241-5.395-3.048-7.524-5.314
			c-2.096-2.183-3.737-4.769-4.825-7.607c-1.084-2.838-1.594-5.87-1.497-8.912c0.27-5.937,2.785-11.541,7.021-15.647
			c4.239-4.106,9.876-6.399,15.743-6.403h0.223c2.918,0.027,5.8,0.646,8.482,1.814c2.679,1.168,5.108,2.865,7.135,4.991
			c2.166,2.253,3.874,4.918,5.015,7.844c1.145,2.925,1.704,6.05,1.644,9.198v17.478c0.003,0.719-0.133,1.431-0.403,2.089
			c-0.27,0.666-0.662,1.268-1.165,1.777c-0.502,0.506-1.095,0.905-1.75,1.178C101.553,120.812,100.854,120.951,100.142,120.945z"/>
	</g>
        <path display="none" fill-rule="evenodd" clip-rule="evenodd" fill="#32B77D" d="M-80.1,22.29
		c41.439-0.096,74.908,33.292,75.067,74.887c0.159,41.464-33.495,75.162-75.025,75.123c-41.514-0.039-74.938-33.469-74.974-74.988
		C-155.068,55.842-121.652,22.386-80.1,22.29z"/>
        <g id="Layer_14" display="none">
		<path display="inline" fill-rule="evenodd" clip-rule="evenodd" fill="#32B77D" d="M-63.824,54.684
			c26.383-0.061,47.693,21.197,47.793,47.679c0.102,26.399-21.325,47.854-47.767,47.829c-26.431-0.025-47.711-21.309-47.734-47.743
			C-111.555,76.046-90.279,54.745-63.824,54.684z"/>
            <path display="inline" fill="#FFFFFF" stroke="#FFFFFF" stroke-width="2" stroke-miterlimit="10" d="M-41.947,117.544
			c-1.871-0.009-3.742-0.002-5.879-0.002c0.958-1.083,1.776-1.946,2.524-2.867c1.402-1.728,2.572-3.505,3.5-5.33
			c0.067-0.132,0.13-0.265,0.194-0.398c2.704-5.552,3.143-11.546,0.795-17.975c-2.692-7.374-8.769-12.483-15.807-14.571
			c-0.129-0.039-0.258-0.075-0.388-0.111c-6.658-1.861-14.13-1.033-20.4,3.147c-2.079,1.385-3.864,2.918-5.35,4.594
			c-0.122,0.136-0.229,0.28-0.345,0.418c-4.195,4.961-5.836,11.136-4.73,18.445c0.8,5.287,3.416,9.669,7.07,13.484
			c0.311,0.325,0.604,0.664,1.057,1.163c-2.141,0-3.975-0.004-5.809,0.001c-2.224,0.006-3.718,1.33-3.733,3.297
			c-0.015,1.997,1.423,3.352,3.677,3.367c4.307,0.026,8.614,0.009,12.921,0.006c1.542-0.001,2.814-0.53,3.448-2.023
			c0.624-1.472,0.192-2.738-0.869-3.897c-2.502-2.735-5.013-5.465-7.422-8.281c-0.879-1.027-1.609-2.141-2.207-3.306
			c-0.099-0.193-0.202-0.384-0.293-0.58c-1.914-4.109-2.12-8.825-0.551-12.954c0.054-0.143,0.103-0.288,0.162-0.429
			c0.564-1.364,1.321-2.659,2.286-3.839c4.731-5.781,10.97-7.833,18.268-6.401c2.455,0.482,4.631,1.415,6.489,2.676
			c0.163,0.109,0.317,0.226,0.474,0.341c7.573,5.532,9.473,16.696,2.642,24.67c-2.362,2.758-4.821,5.434-7.275,8.111
			c-1.064,1.161-1.488,2.427-0.86,3.896c0.615,1.439,1.841,2.007,3.344,2.011c4.381,0.011,8.764,0.031,13.146-0.009
			c2.166-0.019,3.575-1.416,3.555-3.372C-38.333,118.901-39.814,117.554-41.947,117.544z"/>
	</g>
</g>
    <g id="Layer_13" display="none">
</g>
    <g id="Layer_10" display="none">
	<path display="inline" fill-rule="evenodd" clip-rule="evenodd" fill="#32B77D" d="M-80.021,170.053
		c-11.712,0-23.444,0.403-35.134-0.104c-14-0.606-25.755-5.971-33.19-18.583c-3.662-6.211-5.569-13.071-5.623-20.208
		c-0.176-23.487-0.508-46.988,0.091-70.462c0.398-15.626,7.237-28.082,22.146-34.896c5.814-2.658,12.015-3.874,18.4-3.882
		c22.8-0.028,45.607-0.333,68.397,0.153c14.004,0.298,25.78,5.845,33.243,18.449c3.878,6.549,5.662,13.798,5.71,21.325
		c0.146,22.736,0.225,45.477-0.026,68.212c-0.115,10.32-3.158,19.869-10.333,27.674c-6.667,7.252-15.194,11.126-24.816,11.832
		c-9.661,0.708-19.393,0.441-29.093,0.575c-3.257,0.044-6.515,0.007-9.772,0.007C-80.021,170.114-80.021,170.083-80.021,170.053z"/>
</g>
    <g id="Layer_4" display="none">
	<path display="inline" fill="#FFFFFF" stroke="#FFFFFF" stroke-width="2" stroke-miterlimit="10" d="M-45.739,121.021
		c-2.938-0.015-5.877-0.003-9.234-0.003c1.503-1.702,2.79-3.057,3.964-4.503c2.202-2.714,4.039-5.505,5.496-8.371
		c0.105-0.208,0.205-0.417,0.306-0.625c4.248-8.721,4.935-18.135,1.249-28.232c-4.229-11.581-13.773-19.606-24.828-22.885
		c-0.203-0.06-0.406-0.118-0.609-0.175c-10.458-2.923-22.193-1.622-32.042,4.942c-3.266,2.176-6.07,4.583-8.403,7.215
		c-0.19,0.214-0.358,0.439-0.542,0.657c-6.588,7.792-9.166,17.49-7.429,28.969c1.256,8.305,5.366,15.188,11.105,21.181
		c0.487,0.509,0.948,1.042,1.659,1.826c-3.361,0-6.242-0.006-9.122,0.002c-3.494,0.011-5.84,2.089-5.864,5.178
		c-0.024,3.137,2.235,5.266,5.775,5.288c6.764,0.042,13.529,0.015,20.294,0.01c2.422-0.001,4.421-0.833,5.416-3.178
		c0.981-2.313,0.303-4.301-1.363-6.122c-3.931-4.295-7.875-8.583-11.658-13.006c-1.38-1.613-2.526-3.363-3.465-5.193
		c-0.155-0.303-0.317-0.603-0.46-0.91c-3.005-6.454-3.33-13.859-0.865-20.346c0.085-0.224,0.161-0.452,0.253-0.674
		c0.887-2.141,2.075-4.176,3.59-6.028c7.431-9.08,17.23-12.302,28.692-10.054c3.856,0.756,7.274,2.221,10.193,4.202
		c0.254,0.172,0.497,0.356,0.743,0.536c11.894,8.69,14.878,26.224,4.148,38.75c-3.71,4.332-7.572,8.534-11.425,12.74
		c-1.672,1.823-2.337,3.812-1.351,6.12c0.966,2.261,2.891,3.152,5.251,3.159c6.882,0.017,13.765,0.049,20.647-0.013
		c3.402-0.03,5.615-2.224,5.584-5.296C-40.063,123.152-42.389,121.037-45.739,121.021z"/>
</g>
    <g id="Layer_15" display="none">

		<linearGradient id="SVGID_1_" gradientUnits="userSpaceOnUse" x1="-16.5269" y1="157.9688" x2="-126.8238" y2="47.6718" gradientTransform="matrix(0 -1 1 0 -176.0332 15.9688)">
		<stop  offset="0" style="stop-color:#32B77D"/>
            <stop  offset="0.2165" style="stop-color:#32B078"/>
            <stop  offset="0.4726" style="stop-color:#2DA36E"/>
            <stop  offset="0.7476" style="stop-color:#27915F"/>
            <stop  offset="1" style="stop-color:#1F7C50"/>
	</linearGradient>
        <path display="inline" fill-rule="evenodd" clip-rule="evenodd" fill="url(#SVGID_1_)" d="M-114.189,21.949
		c-7.238,0.046-14.213,1.719-20.562,5.294c-48.408,91.922,20.414,147.27,74.092,136.755c13.577-2.659,39.5-0.667,52.58-20.625
		c1.166-3.83,1.809-7.932,1.996-12.25c0.506-11.69,0.104-23.422,0.104-35.134c0.031,0,0.062,0,0.091,0
		c0-3.257,0.038-6.515-0.007-9.772c-0.134-9.7,0.132-19.433-0.575-29.093c-0.705-9.623-4.58-18.15-11.832-24.816
		c-7.806-7.174-17.354-10.218-27.674-10.333C-68.712,21.724-91.453,21.804-114.189,21.949z"/>

        <linearGradient id="SVGID_2_" gradientUnits="userSpaceOnUse" x1="-11.2817" y1="41.2813" x2="-11.2817" y2="41.2529" gradientTransform="matrix(0 -1 1 0 -176.0332 15.9688)">
		<stop  offset="0" style="stop-color:#32B77D"/>
            <stop  offset="0.2165" style="stop-color:#32B078"/>
            <stop  offset="0.4726" style="stop-color:#2DA36E"/>
            <stop  offset="0.7476" style="stop-color:#27915F"/>
            <stop  offset="1" style="stop-color:#1F7C50"/>
	</linearGradient>
        <path display="inline" fill="url(#SVGID_2_)" d="M-134.78,27.259c0.009-0.005,0.019-0.01,0.028-0.016"/>

        <linearGradient id="SVGID_3_" gradientUnits="userSpaceOnUse" x1="-82.5278" y1="167.9531" x2="-82.5278" y2="21.7964" gradientTransform="matrix(0 -1 1 0 -176.0332 15.9688)">
		<stop  offset="0" style="stop-color:#32B77D"/>
            <stop  offset="0.2165" style="stop-color:#32B078"/>
            <stop  offset="0.4726" style="stop-color:#2DA36E"/>
            <stop  offset="0.7476" style="stop-color:#27915F"/>
            <stop  offset="1" style="stop-color:#1F7C50"/>
	</linearGradient>
        <path display="inline" fill="url(#SVGID_3_)" d="M-135.514,27.659c-12.604,7.463-18.15,19.239-18.449,33.243
		c-0.487,22.79-0.181,45.598-0.153,68.397c0.008,6.385,1.224,12.586,3.882,18.4c6.814,14.909,19.271,21.748,34.896,22.146
		c23.474,0.599,46.975,0.267,70.462,0.091c7.137-0.054,13.998-1.961,20.208-5.623c8.683-5.118,13.929-12.284,16.555-20.819
		c0.012-0.04,0.021-0.081,0.033-0.121c-14.247,10.458-53.77,12.118-67.58,11.292c-73.436-4.393-73-69.167-58.291-127.86
		C-134.194,26.942-135.272,27.516-135.514,27.659z"/>
        <path display="inline" fill="#FFFFFF" stroke="#FFFFFF" stroke-width="2" stroke-miterlimit="10" d="M-45.739,121.021
		c-2.938-0.015-5.877-0.003-9.234-0.003c1.503-1.702,2.79-3.057,3.964-4.503c2.202-2.714,4.039-5.505,5.496-8.371
		c0.105-0.208,0.205-0.417,0.306-0.625c4.248-8.721,4.935-18.135,1.249-28.232c-4.229-11.581-13.773-19.606-24.828-22.885
		c-0.203-0.06-0.406-0.118-0.609-0.175c-10.458-2.923-22.193-1.622-32.042,4.942c-3.266,2.176-6.07,4.583-8.403,7.215
		c-0.19,0.214-0.358,0.439-0.542,0.657c-6.588,7.792-9.166,17.49-7.429,28.969c1.256,8.305,5.366,15.188,11.105,21.181
		c0.487,0.509,0.948,1.042,1.659,1.826c-3.361,0-6.242-0.006-9.122,0.002c-3.494,0.011-5.84,2.089-5.864,5.178
		c-0.024,3.137,2.235,5.266,5.775,5.288c6.764,0.042,13.529,0.015,20.294,0.01c2.422-0.001,4.421-0.833,5.416-3.178
		c0.981-2.313,0.303-4.301-1.363-6.122c-3.931-4.295-7.875-8.583-11.658-13.006c-1.38-1.613-2.526-3.363-3.465-5.193
		c-0.155-0.303-0.317-0.603-0.46-0.91c-3.005-6.454-3.33-13.859-0.865-20.346c0.085-0.224,0.161-0.452,0.253-0.674
		c0.887-2.141,2.075-4.176,3.59-6.028c7.431-9.08,17.23-12.302,28.692-10.054c3.856,0.756,7.274,2.221,10.193,4.202
		c0.254,0.172,0.497,0.356,0.743,0.536c11.894,8.69,14.878,26.224,4.148,38.75c-3.71,4.332-7.572,8.534-11.425,12.74
		c-1.672,1.823-2.337,3.812-1.351,6.12c0.966,2.261,2.891,3.152,5.251,3.159c6.882,0.017,13.765,0.049,20.647-0.013
		c3.402-0.03,5.615-2.224,5.584-5.296C-40.063,123.152-42.389,121.037-45.739,121.021z"/>
</g>
    <g id="Layer_12" display="none">
	<g display="inline">
		<path fill="#32B77D" d="M-39.489,34.878c3.839,2.69,7.333,5.214,10.402,8.058C-32.304,39.954-35.785,37.26-39.489,34.878z"/>
        <path fill="#32B77D" d="M-28.838,152.879c-0.391,0.36-0.777,0.725-1.177,1.08C-29.618,153.604-29.228,153.243-28.838,152.879z"/>
        <path fill="#32B77D" d="M-31.136,154.931c-0.667,0.57-1.337,1.138-2.028,1.685C-32.478,156.066-31.803,155.504-31.136,154.931z"/>
        <linearGradient id="SVGID_4_" gradientUnits="userSpaceOnUse" x1="-155.0322" y1="91.0913" x2="-39.8838" y2="91.0913">
			<stop  offset="0" style="stop-color:#32B77D"/>
            <stop  offset="0.2165" style="stop-color:#32B078"/>
            <stop  offset="0.4726" style="stop-color:#2DA36E"/>
            <stop  offset="0.7476" style="stop-color:#27915F"/>
            <stop  offset="1" style="stop-color:#1F7C50"/>
		</linearGradient>
        <path fill="url(#SVGID_4_)" d="M-53.708,122.803c4.667-6.294,7.814-14.653,7.59-23.164c-0.278-10.598-3.5-19.576-11.565-27.782
			c-7.435-7.567-16.942-11.636-27.705-11.636c-10.335,0-19.478,5.689-28.729,16.518c4.648-8.49,26.927-41.452,74.234-42.112
			c-11.619-7.37-25.402-11.632-40.216-11.598c-41.552,0.096-74.968,33.553-74.932,75.022c0.022,25.273,12.429,47.532,31.488,61.104
			C-99.835,157.989-71.774,154.186-53.708,122.803z"/>
        <path fill="#2D95BB" d="M-33.165,156.616c-0.063,0.051-0.127,0.1-0.19,0.15C-33.292,156.716-33.228,156.666-33.165,156.616z"/>
        <path fill="#2D95BB" d="M-30.485,154.391c0.161-0.141,0.31-0.29,0.47-0.431c-0.369,0.33-0.746,0.649-1.122,0.972
			C-30.922,154.749-30.697,154.576-30.485,154.391z"/>
        <path fill="#2D95BB" d="M-39.847,34.625c-0.012,0-0.024,0.001-0.037,0.001c0.132,0.083,0.264,0.167,0.395,0.251
			C-39.611,34.793-39.725,34.71-39.847,34.625z"/>
        <path fill="#2D95BB" d="M-28.684,43.293c-0.129-0.123-0.272-0.236-0.403-0.357c0.337,0.312,0.667,0.631,0.999,0.95
			C-28.291,43.69-28.478,43.488-28.684,43.293z"/>
        <path fill="#2D95BB" d="M-123.579,159.156c0.104,0.067,0.202,0.125,0.306,0.191c-0.091-0.064-0.181-0.128-0.271-0.193
			C-123.556,159.155-123.567,159.156-123.579,159.156z"/>
        <path fill="#34B77D" d="M-5.033,97.916c-0.019-4.84-0.506-9.562-1.386-14.139c-0.005-0.024-0.009-0.048-0.013-0.073
			c-0.133-0.719-0.296-1.426-0.448-2.138c-2.628-12.31-8.188-23.503-17.146-33.463c-0.381-0.424-0.76-0.849-1.154-1.269
			c-0.352-0.377-0.709-0.748-1.069-1.118c-0.599-0.615-1.213-1.225-1.839-1.83c-0.332-0.318-0.662-0.638-0.999-0.95
			c-3.07-2.844-6.563-5.368-10.402-8.058c-0.131-0.084-0.263-0.168-0.395-0.251c-47.307,0.661-70.398,31.56-75.047,40.05
			c9.251-10.828,19.206-14.455,29.542-14.455c10.763,0,20.27,4.068,27.705,11.636c8.066,8.207,11.288,17.185,11.565,27.782
			c0.225,8.511-2.922,16.87-7.59,23.164c-18.066,31.383-46.126,35.186-69.836,36.352c0.09,0.064,0.18,0.129,0.271,0.193
			c6.854,4.835,14.558,8.544,22.854,10.873c0.079,0.022,0.156,0.044,0.234,0.066c0.721,0.203,1.44,0.393,2.158,0.569
			c0.128,0.031,0.257,0.058,0.385,0.089c4.48,1.074,9.112,1.763,13.87,1.997c0.033,0.002,0.064,0.005,0.098,0.008
			c5.974,0.424,12.151-0.068,18.264-1.337c11.953-2.354,22.875-7.55,32.055-14.846c0.063-0.051,0.127-0.1,0.19-0.15
			c0.691-0.547,1.361-1.115,2.028-1.685c0.375-0.322,0.753-0.642,1.122-0.972c0.4-0.355,0.786-0.72,1.177-1.08
			c15.33-14.138,23.794-32.421,23.794-53.39c0-0.18-0.01-0.355-0.011-0.534C-5.052,98.608-5.031,98.264-5.033,97.916z"/>
	</g>
        <path display="inline" fill="#FFFFFF" stroke="#FFFFFF" stroke-width="2" stroke-miterlimit="10" d="M-45.739,121.76
		c-2.938-0.015-5.877-0.003-9.234-0.003c1.503-1.702,2.79-3.057,3.964-4.503c2.202-2.714,4.039-5.505,5.496-8.371
		c0.105-0.208,0.205-0.417,0.306-0.625c4.248-8.721,4.935-18.135,1.249-28.232c-4.229-11.581-13.773-19.606-24.828-22.885
		c-0.203-0.06-0.406-0.118-0.609-0.175c-10.458-2.923-22.193-1.622-32.042,4.942c-3.266,2.176-6.07,4.583-8.403,7.215
		c-0.19,0.214-0.358,0.439-0.542,0.657c-6.588,7.792-9.166,17.49-7.429,28.969c1.256,8.305,5.366,15.188,11.105,21.181
		c0.487,0.509,0.948,1.042,1.659,1.826c-3.361,0-6.242-0.006-9.122,0.002c-3.494,0.011-5.84,2.089-5.864,5.178
		c-0.024,3.137,2.235,5.266,5.775,5.288c6.764,0.042,13.529,0.015,20.294,0.01c2.422-0.001,4.421-0.833,5.416-3.178
		c0.981-2.313,0.303-4.301-1.363-6.122c-3.931-4.295-7.875-8.583-11.658-13.006c-1.38-1.613-2.526-3.363-3.465-5.193
		c-0.155-0.303-0.317-0.603-0.46-0.91c-3.005-6.454-3.33-13.859-0.865-20.346c0.085-0.224,0.161-0.452,0.253-0.674
		c0.887-2.141,2.075-4.176,3.59-6.028c7.431-9.08,17.23-12.302,28.692-10.054c3.856,0.756,7.274,2.221,10.193,4.202
		c0.254,0.172,0.497,0.356,0.743,0.536c11.894,8.69,14.878,26.224,4.148,38.75c-3.71,4.332-7.572,8.534-11.425,12.74
		c-1.672,1.823-2.337,3.812-1.351,6.12c0.966,2.261,2.891,3.152,5.251,3.159c6.882,0.017,13.765,0.049,20.647-0.013
		c3.402-0.03,5.615-2.224,5.584-5.296C-40.063,123.891-42.389,121.776-45.739,121.76z"/>
</g>
    <g id="Layer_8" display="none">
	<path display="inline" fill="#E9F5F0" d="M-45.737,107.138c4.248-8.721,4.935-18.135,1.249-28.232
		c-4.229-11.581-13.773-19.606-24.828-22.885c-18.954-0.312-33.292,11.6-37.321,25.665c0.887-2.141,2.075-4.176,3.59-6.028
		c7.431-9.08,17.23-12.302,28.692-10.054c3.856,0.756,7.274,2.221,10.193,4.202C-52.284,75.828-43.545,90.929-45.737,107.138z"/>
        <path display="inline" fill="#FFFFFF" d="M-46.27,120.64c-2.938-0.015-5.877-0.003-9.234-0.003c1.503-1.702,2.79-3.057,3.964-4.503
		c2.202-2.714,4.039-5.505,5.496-8.371c0.105-0.208,0.205-0.417,0.306-0.625c2.192-16.209-6.547-31.31-18.424-37.333
		c0.254,0.172,0.497,0.356,0.743,0.536c11.894,8.69,14.878,26.224,4.148,38.75c-3.71,4.332-7.572,8.534-11.425,12.74
		c-1.672,1.823-2.337,3.812-1.351,6.12c0.966,2.261,2.891,3.152,5.251,3.159c6.882,0.017,13.765,0.049,20.647-0.013
		c3.402-0.03,5.615-2.224,5.584-5.296C-40.594,122.77-42.92,120.655-46.27,120.64z"/>
        <path display="inline" fill="#E9F5F0" d="M-106.025,102.705c-3.005-6.454-3.33-13.859-0.865-20.346
		c0.085-0.224,0.161-0.452,0.253-0.674c4.029-14.065,18.367-25.977,37.321-25.665c-0.203-0.06-0.406-0.118-0.609-0.175
		c-10.458-2.923-22.193-1.622-32.042,4.942c-3.266,2.176-6.07,4.583-8.403,7.215C-114.938,80.717-112.593,93.647-106.025,102.705z"
        />
        <path display="inline" fill="#D2E9CD" d="M-90.441,121.814c-3.931-4.295-7.875-8.583-11.658-13.006
		c-1.38-1.613-2.526-3.363-3.465-5.193c-0.155-0.303-0.317-0.603-0.46-0.91c-6.568-9.058-8.914-21.988-4.346-34.702
		c-0.19,0.214-0.358,0.439-0.542,0.657c-6.588,7.792-9.166,17.49-7.429,28.969c1.256,8.305,5.366,15.188,11.105,21.181
		c0.487,0.509,0.948,1.042,1.659,1.826c-3.361,0-6.242-0.006-9.122,0.002c-3.494,0.011-5.84,2.089-5.864,5.178
		c-0.024,3.137,2.235,5.266,5.775,5.288c6.764,0.042,13.529,0.015,20.294,0.01c2.422-0.001,4.421-0.833,5.416-3.178
		C-88.097,125.623-88.775,123.635-90.441,121.814z"/>
</g>
    <g id="Layer_6" display="none">
	<linearGradient id="SVGID_5_" gradientUnits="userSpaceOnUse" x1="303.1729" y1="-144.9253" x2="369.0068" y2="-144.9253">
		<stop  offset="0" style="stop-color:#2D95BB"/>
        <stop  offset="0.2063" style="stop-color:#2C91B6"/>
        <stop  offset="0.3744" style="stop-color:#2B87AA"/>
        <stop  offset="0.529" style="stop-color:#287798"/>
        <stop  offset="0.6756" style="stop-color:#226381"/>
        <stop  offset="0.8167" style="stop-color:#194B67"/>
        <stop  offset="0.9516" style="stop-color:#0A314B"/>
        <stop  offset="1" style="stop-color:#052641"/>
	</linearGradient>
        <path display="inline" fill="url(#SVGID_5_)" stroke="#FFFFFF" stroke-width="2" stroke-miterlimit="10" d="M363.301-117.408
		c-2.938-0.015-5.878-0.003-9.233-0.003c1.503-1.702,2.789-3.057,3.963-4.503c2.203-2.714,4.039-5.505,5.496-8.371
		c0.105-0.208,0.205-0.417,0.307-0.625c4.248-8.721,4.936-18.135,1.248-28.232c-4.229-11.581-13.773-19.606-24.827-22.885
		c-0.202-0.06-0.405-0.118-0.609-0.175c-1.04-0.291-2.095-0.527-3.157-0.733c-8.138,2.339-27.771,10.49-33.314,26.048
		c0.859-1.947,1.961-3.805,3.351-5.503c7.431-9.08,17.23-12.302,28.692-10.054c3.855,0.756,7.273,2.221,10.193,4.202
		c0.254,0.172,0.496,0.356,0.743,0.536c11.894,8.69,14.878,26.224,4.148,38.75c-3.71,4.332-7.571,8.534-11.425,12.74
		c-1.673,1.823-2.338,3.812-1.352,6.12c0.967,2.261,2.891,3.152,5.252,3.159c6.881,0.017,13.765,0.049,20.646-0.013
		c3.402-0.03,5.615-2.224,5.584-5.296C368.976-115.277,366.65-117.392,363.301-117.408z"/>
        <linearGradient id="SVGID_6_" gradientUnits="userSpaceOnUse" x1="289.0068" y1="-145.2959" x2="335.3086" y2="-145.2959">
		<stop  offset="0" style="stop-color:#2D95BB"/>
            <stop  offset="0.2063" style="stop-color:#2C91B6"/>
            <stop  offset="0.3744" style="stop-color:#2B87AA"/>
            <stop  offset="0.529" style="stop-color:#287798"/>
            <stop  offset="0.6756" style="stop-color:#226381"/>
            <stop  offset="0.8167" style="stop-color:#194B67"/>
            <stop  offset="0.9516" style="stop-color:#0A314B"/>
            <stop  offset="1" style="stop-color:#052641"/>
	</linearGradient>
        <path display="inline" fill="url(#SVGID_6_)" stroke="#FFFFFF" stroke-width="2" stroke-miterlimit="10" d="M335.309-183.151
		c-9.284-1.515-19.198,0.221-27.706,5.891c-3.266,2.176-6.07,4.583-8.402,7.215c-0.191,0.214-0.359,0.439-0.543,0.657
		c-6.588,7.792-9.166,17.49-7.429,28.969c1.257,8.305,5.366,15.188,11.104,21.181c0.488,0.509,0.948,1.042,1.66,1.826
		c-3.361,0-6.242-0.006-9.122,0.002c-3.493,0.011-5.841,2.089-5.864,5.178c-0.023,3.137,2.235,5.266,5.775,5.288
		c6.764,0.042,13.529,0.015,20.295,0.01c2.422-0.001,4.42-0.833,5.415-3.178c0.981-2.313,0.303-4.301-1.363-6.122
		c-3.931-4.295-7.874-8.583-11.658-13.006c-1.38-1.613-2.526-3.363-3.466-5.193c-0.154-0.303-0.316-0.603-0.459-0.91
		c-2.013-4.321-2.816-9.069-2.393-13.682C301.714-167.213,323.542-180.414,335.309-183.151z"/>
        <linearGradient id="SVGID_7_" gradientUnits="userSpaceOnUse" x1="301.1426" y1="-146.8408" x2="303.9834" y2="-146.8408">
		<stop  offset="0" style="stop-color:#2D95BB"/>
            <stop  offset="0.2063" style="stop-color:#2C91B6"/>
            <stop  offset="0.3744" style="stop-color:#2B87AA"/>
            <stop  offset="0.529" style="stop-color:#287798"/>
            <stop  offset="0.6756" style="stop-color:#226381"/>
            <stop  offset="0.8167" style="stop-color:#194B67"/>
            <stop  offset="0.9516" style="stop-color:#0A314B"/>
            <stop  offset="1" style="stop-color:#052641"/>
	</linearGradient>
        <path display="inline" fill="url(#SVGID_7_)" d="M302.681-155.688c-0.814,2.143-1.318,4.388-1.527,6.664
		c-0.119,3.869,0.723,7.963,2.83,12.231c-2.985-7.74-2.836-14.41-0.811-20.094c-0.078,0.176-0.166,0.348-0.24,0.525
		C302.841-156.14,302.765-155.913,302.681-155.688z"/>
        <linearGradient id="SVGID_8_" gradientUnits="userSpaceOnUse" x1="335.3086" y1="-183.3071" x2="339.9189" y2="-183.3071">
		<stop  offset="0" style="stop-color:#2D95BB"/>
            <stop  offset="0.2063" style="stop-color:#2C91B6"/>
            <stop  offset="0.3744" style="stop-color:#2B87AA"/>
            <stop  offset="0.529" style="stop-color:#287798"/>
            <stop  offset="0.6756" style="stop-color:#226381"/>
            <stop  offset="0.8167" style="stop-color:#194B67"/>
            <stop  offset="0.9516" style="stop-color:#0A314B"/>
            <stop  offset="1" style="stop-color:#052641"/>
	</linearGradient>
        <path display="inline" fill="url(#SVGID_8_)" d="M339.919-183.653c-1.221-0.095-2.797,0.081-4.61,0.502
		c0.395,0.064,0.786,0.139,1.179,0.215C338.28-183.45,339.517-183.685,339.919-183.653z"/>
        <linearGradient id="SVGID_9_" gradientUnits="userSpaceOnUse" x1="301.1533" y1="-166.0879" x2="336.4873" y2="-166.0879">
		<stop  offset="0" style="stop-color:#2D95BB"/>
            <stop  offset="0.2063" style="stop-color:#2C91B6"/>
            <stop  offset="0.3744" style="stop-color:#2B87AA"/>
            <stop  offset="0.529" style="stop-color:#287798"/>
            <stop  offset="0.6756" style="stop-color:#226381"/>
            <stop  offset="0.8167" style="stop-color:#194B67"/>
            <stop  offset="0.9516" style="stop-color:#0A314B"/>
            <stop  offset="1" style="stop-color:#052641"/>
	</linearGradient>
        <path display="inline" fill="url(#SVGID_9_)" d="M336.487-182.936c-0.393-0.076-0.784-0.151-1.179-0.215
		c-11.767,2.737-33.595,15.938-34.155,34.126c0.209-2.276,0.713-4.521,1.527-6.664c0.084-0.224,0.16-0.452,0.252-0.674
		c0.074-0.178,0.162-0.35,0.24-0.525C308.717-172.445,328.35-180.597,336.487-182.936z"/>
</g>
    <g id="Layer_7" display="none">
	<path display="inline" fill-rule="evenodd" clip-rule="evenodd" fill="#27AAE1" d="M393.153-184.562
		c-3.488-4.44-7.072-8.327-9.895-12.706c-20.292-31.481-2.68-72.6,34.08-79.821c26.367-5.181,51.876,7.375,61.764,30.965
		c8.437,20.128,4.353,38.549-9.056,55.257c-1.641,2.043-3.46,3.943-5.544,6.305c4.65,0,8.781-0.008,12.913,0.002
		c4.805,0.011,8.125,2.887,8.249,7.125c0.13,4.44-3.061,7.594-8.017,7.633c-9.746,0.075-19.493,0.034-29.24,0.013
		c-3.34-0.007-6.063-1.201-7.397-4.472c-1.292-3.165-0.602-5.978,1.708-8.505c5.394-5.902,10.78-11.813,16.078-17.801
		c11.924-13.479,13.235-33.118,2.663-46.914c-9.942-12.973-23.565-18.101-39.496-15.336c-15.41,2.675-26.56,11.435-31.068,26.852
		c-3.838,13.129-0.421,25.03,8.328,35.347c4.954,5.841,10.309,11.341,15.346,17.115c1.264,1.448,2.528,3.259,2.869,5.077
		c0.943,5.018-2.487,8.569-8.058,8.629c-7.163,0.078-14.328,0.023-21.493,0.021c-2.665,0-5.336,0.085-7.996-0.039
		c-4.615-0.214-7.648-3.343-7.532-7.605c0.114-4.167,3.399-7.119,7.983-7.138C384.562-184.576,388.78-184.562,393.153-184.562z"/>
</g>
    <g id="Layer_5" display="none">
	<g display="inline">
		<defs>
			<rect id="SVGID_10_" x="-163.092" y="-158.338" width="657.668" height="149.935"/>
		</defs>
        <clipPath id="SVGID_11_">
			<use xlink:href="#SVGID_10_"  overflow="visible"/>
		</clipPath>
        <g clip-path="url(#SVGID_11_)">
			<path fill="#333442" d="M24.526-45.475c-1.417,0-2.782-0.572-3.784-1.59c-1.001-1.015-1.567-2.396-1.567-3.833
				c0-6.097,0-12.283,0-18.27c0-5.986,0-12.183,0-18.256c-0.026-3.338,0.616-6.649,1.884-9.73c1.271-3.082,3.141-5.874,5.5-8.206
				c2.233-2.256,4.892-4.04,7.817-5.238c2.925-1.201,6.06-1.791,9.218-1.737C54.822-112.123,67.167-102,66.931-87.803
				c-0.026,2.855-0.609,5.67-1.72,8.293c-1.108,2.622-2.719,4.995-4.739,6.981c-4.589,4.459-10.918,6.815-17.867,6.708
				c-0.702-0.013-1.395-0.167-2.04-0.453s-1.228-0.695-1.717-1.208c-0.985-1.035-1.521-2.426-1.494-3.863
				c0.023-1.438,0.615-2.805,1.637-3.804c1.021-0.998,2.393-1.544,3.81-1.518c3.76,0.19,7.438-1.135,10.236-3.677
				c1.015-0.992,1.817-2.183,2.366-3.498c0.549-1.314,0.829-2.729,0.822-4.156c0.146-8.216-7.381-13.404-12.842-13.504
				c-1.727-0.027-3.444,0.306-5.045,0.972s-3.052,1.65-4.266,2.898c-1.334,1.324-2.393,2.905-3.111,4.655
				c-0.722,1.744-1.085,3.621-1.078,5.514c0,6.11,0,12.323,0,18.333s0,12.126,0,18.183c0,1.438-0.563,2.819-1.564,3.833
				c-1.005,1.019-2.366,1.591-3.787,1.591L24.526-45.475z"/>
            <path fill="#34B77D" d="M346.021-45.475c-1.42,0-2.781-0.572-3.787-1.59c-1-1.015-1.563-2.396-1.563-3.833
				c0-6.117,0-12.336,0-18.339c0-6,0-12.136,0-18.193c-0.023-3.334,0.621-6.642,1.887-9.724c1.264-3.082,3.135-5.87,5.486-8.206
				c2.234-2.263,4.889-4.053,7.811-5.254c2.922-1.205,6.057-1.8,9.215-1.754c11.23,0.22,23.584,10.343,23.352,24.536
				c-0.031,2.852-0.617,5.67-1.725,8.292c-1.111,2.619-2.719,4.995-4.738,6.981c-4.586,4.463-10.908,6.832-17.873,6.706
				c-1.418-0.013-2.773-0.596-3.771-1.624c-0.992-1.025-1.543-2.409-1.531-3.847c0.014-1.438,0.59-2.812,1.605-3.82
				c1.012-1.005,2.375-1.564,3.793-1.551h0.1c4.063,0.07,7.777-1.261,10.236-3.68c1.018-0.992,1.82-2.18,2.369-3.494
				s0.832-2.729,0.828-4.157c0.137-8.216-7.383-13.407-12.842-13.507c-1.73-0.023-3.449,0.307-5.051,0.972
				c-1.604,0.666-3.055,1.651-4.27,2.902c-1.334,1.325-2.393,2.905-3.111,4.652s-1.084,3.624-1.072,5.518c0,6.076,0,12.266,0,18.252
				s0,12.183,0,18.263c0,1.438-0.559,2.818-1.563,3.833c-1.006,1.015-2.369,1.587-3.785,1.587V-45.475z"/>
            <path fill="#333442" d="M166.723-64.616c-1.421,0-2.778-0.569-3.784-1.584c-1.005-1.018-1.567-2.396-1.567-3.833v-20.279
				c-0.33-2.955-1.681-5.697-3.817-7.744c-2.13-2.043-4.909-3.258-7.84-3.431h-0.413c-3.028-0.007-5.947,1.135-8.187,3.198
				c-2.236,2.063-3.634,4.902-3.907,7.957c0,3.694,0,6.815-0.063,9.937c-0.063,3.121,0,6.356-0.063,10.143
				c0,1.438-0.562,2.819-1.564,3.833c-1.005,1.019-2.366,1.591-3.787,1.591c-1.418,0-2.779-0.572-3.78-1.591
				c-1.005-1.015-1.571-2.396-1.571-3.833c0-3.787,0-6.968,0.063-10.153c0.06-3.185,0.043-6.359,0.07-10.14v-0.393
				c0.436-5.81,3.028-11.234,7.248-15.194c4.223-3.954,9.764-6.146,15.517-6.136h0.762c4.113,0.166,8.103,1.438,11.564,3.687
				s6.266,5.397,8.123,9.118c1.091,2.186,1.83,4.542,2.176,6.968c0.629,4.585,0.206,9.417,0.206,14.036c0,2.809,0,5.614,0,8.426
				c0,0.712-0.14,1.421-0.409,2.083c-0.27,0.659-0.669,1.258-1.168,1.764c-0.502,0.502-1.098,0.901-1.75,1.171
				C168.131-64.745,167.429-64.609,166.723-64.616z"/>
            <path fill="#333442" d="M206.184-65.813h-3.677c-3.035,0.073-6.056-0.469-8.878-1.597c-2.822-1.132-5.397-2.822-7.564-4.979
				c-2.213-2.163-3.977-4.745-5.194-7.607c-1.215-2.855-1.857-5.93-1.894-9.044c-0.013-3.068,0.583-6.106,1.754-8.935
				c1.168-2.832,2.885-5.395,5.051-7.537c4.319-4.343,10.143-6.795,16.226-6.822h0.263c6.03,0.12,11.771,2.616,16.017,6.948
				c4.246,4.34,6.662,10.176,6.735,16.286c0.007,0.715-0.126,1.424-0.393,2.09s-0.659,1.268-1.158,1.777
				c-0.496,0.509-1.088,0.912-1.744,1.191c-0.649,0.273-1.351,0.416-2.057,0.416H202.6c-1.417,0-2.782-0.569-3.784-1.587
				c-1.005-1.018-1.567-2.396-1.567-3.833s0.563-2.815,1.567-3.833c1.002-1.018,2.366-1.587,3.784-1.587h10.363
				c-0.852-1.78-2.11-3.331-3.681-4.516c-1.564-1.185-3.384-1.977-5.311-2.299c-1.93-0.326-3.903-0.18-5.764,0.429
				c-1.863,0.605-3.547,1.657-4.925,3.062c-1.148,1.135-2.057,2.489-2.679,3.986c-0.619,1.498-0.935,3.105-0.928,4.726
				c0.02,1.67,0.366,3.318,1.025,4.849c0.659,1.527,1.604,2.912,2.795,4.066c1.158,1.155,2.536,2.06,4.046,2.666
				s3.128,0.898,4.752,0.858h0.207c2.995,0,5.803,0,8.509,0s5.587,0,8.662,0c0.702,0.003,1.397,0.146,2.043,0.423
				c0.649,0.276,1.238,0.675,1.73,1.181c0.496,0.506,0.885,1.105,1.152,1.764c0.273,0.659,0.406,1.364,0.399,2.077
				c0,0.712-0.14,1.417-0.413,2.073c-0.273,0.655-0.672,1.254-1.168,1.753c-0.502,0.502-1.088,0.898-1.74,1.168
				c-0.652,0.27-1.344,0.409-2.05,0.402h-0.053c-2.999,0-5.797,0-8.509,0L206.184-65.813z"/>
            <path fill="#333442" d="M246.985-65.813c-3.294,0.086-6.516-0.985-9.121-3.035c-4.832-3.973-5.208-9.89-5.208-11.62v-47.054
				c0-1.438,0.566-2.819,1.571-3.833c1.005-1.019,2.363-1.591,3.784-1.591c1.417,0,2.778,0.572,3.784,1.591
				c1.005,1.015,1.564,2.396,1.564,3.833v47.064c-0.007,0.589,0.1,1.175,0.313,1.721c0.213,0.545,0.533,1.048,0.938,1.471
				c0.786,0.489,1.71,0.702,2.629,0.605h1.764c1.417,0,2.782,0.569,3.784,1.584c1.005,1.019,1.567,2.396,1.567,3.833
				c0,1.438-0.563,2.819-1.567,3.834c-1.001,1.018-2.366,1.59-3.784,1.59h-2.017V-65.813z"/>
            <path fill="#34B77D" d="M326.086-65.813c-3.295,0.09-6.516-0.985-9.115-3.035c-4.832-3.973-5.215-9.89-5.215-11.62v-47.054
				c0-1.438,0.566-2.819,1.572-3.833c0.998-1.019,2.361-1.591,3.779-1.591c1.422,0,2.781,0.572,3.787,1.591
				c1.002,1.015,1.566,2.396,1.566,3.833v47.064c-0.016,1.188,0.434,2.339,1.256,3.191c0.779,0.493,1.703,0.706,2.619,0.605h1.766
				c1.418,0,2.779,0.569,3.785,1.584c1,1.019,1.566,2.396,1.566,3.833c0,1.438-0.566,2.819-1.566,3.834
				c-1.006,1.018-2.367,1.59-3.785,1.59h-2.016V-65.813z"/>
            <path fill="#34B77D" d="M442.16-89.347v-0.213c-0.289-6.093-2.865-11.847-7.205-16.08c-4.332-4.232-10.105-6.622-16.125-6.688
				c-4.479-0.013-8.869,1.271-12.652,3.694v-18.835c0-1.438-0.566-2.815-1.57-3.833c-0.998-1.019-2.363-1.587-3.781-1.587
				c-1.424,0-2.781,0.569-3.787,1.587c-1,1.018-1.566,2.396-1.566,3.833v56.235c0,1.438,0.566,2.818,1.566,3.833
				c1.006,1.015,2.363,1.587,3.787,1.587c1.418,0,2.783-0.572,3.781-1.587c1.004-1.015,1.57-2.396,1.57-3.833v-18.023
				c0.113-3.308,1.5-6.439,3.867-8.722c2.363-2.286,5.518-3.544,8.785-3.507c3.248,0.043,6.363,1.338,8.709,3.617
				s3.742,5.381,3.916,8.669v17.983c0,1.438,0.566,2.815,1.57,3.833c1.006,1.015,2.363,1.587,3.783,1.587
				c1.418,0,2.779-0.572,3.785-1.587c1.004-1.018,1.566-2.396,1.566-3.833V-89.347z"/>
            <path fill="#333442" d="M113.376-65.561c-1.417,0-2.779-0.569-3.78-1.584c-1.005-1.019-1.571-2.396-1.571-3.833v-17.557
				c0.047-1.734-0.25-3.461-0.869-5.075c-0.619-1.614-1.551-3.092-2.739-4.336c-1.048-1.104-2.303-1.983-3.687-2.592
				c-1.391-0.609-2.882-0.928-4.393-0.948h-0.113c-6.339,0-11.85,5.274-12.073,11.581c-0.043,1.594,0.233,3.181,0.809,4.666
				c0.576,1.484,1.441,2.838,2.546,3.977c1.145,1.214,2.519,2.186,4.04,2.852c1.524,0.666,3.165,1.012,4.822,1.019
				c1.421,0,2.782,0.572,3.784,1.591c1.005,1.015,1.571,2.396,1.571,3.833s-0.565,2.815-1.571,3.833
				c-1.001,1.015-2.363,1.587-3.784,1.587h-0.043c-3.092-0.017-6.143-0.663-8.981-1.904c-2.835-1.241-5.395-3.048-7.524-5.314
				c-2.096-2.183-3.737-4.769-4.825-7.607c-1.084-2.838-1.594-5.87-1.497-8.912c0.27-5.937,2.785-11.541,7.021-15.647
				c4.239-4.106,9.876-6.399,15.743-6.403h0.223c2.918,0.027,5.8,0.646,8.482,1.814c2.679,1.168,5.108,2.865,7.135,4.991
				c2.166,2.253,3.874,4.918,5.015,7.844c1.145,2.925,1.704,6.05,1.644,9.198v17.478c0.003,0.719-0.133,1.431-0.403,2.089
				c-0.27,0.666-0.662,1.268-1.165,1.777c-0.502,0.506-1.095,0.905-1.75,1.178C114.788-65.694,114.088-65.554,113.376-65.561z"/>
            <path fill="#34B77D" d="M298.16-65.557c-1.426,0-2.783-0.573-3.787-1.587c-1.002-1.019-1.568-2.396-1.568-3.833v-17.557
				c0.047-1.734-0.25-3.458-0.867-5.072c-0.619-1.617-1.551-3.091-2.736-4.339c-1.051-1.102-2.303-1.983-3.688-2.589
				c-1.387-0.609-2.876-0.932-4.394-0.952h-0.109c-6.339,0-11.856,5.274-12.069,11.581c-0.047,1.594,0.226,3.181,0.805,4.666
				c0.579,1.487,1.444,2.838,2.549,3.977c1.138,1.214,2.512,2.186,4.036,2.852c1.521,0.666,3.157,1.012,4.815,1.019
				c1.42,0.013,2.776,0.592,3.774,1.617s1.551,2.409,1.537,3.847c-0.01,1.438-0.582,2.809-1.594,3.82
				c-1.009,1.012-2.378,1.571-3.794,1.561c-3.1-0.01-6.16-0.649-9.002-1.89c-2.845-1.241-5.414-3.048-7.547-5.321
				c-2.1-2.18-3.74-4.765-4.825-7.607c-1.088-2.835-1.597-5.87-1.498-8.912c0.27-5.937,2.786-11.538,7.022-15.644
				c4.239-4.106,9.876-6.399,15.739-6.406h0.225c2.919,0.03,5.804,0.646,8.485,1.817c2.682,1.168,5.105,2.865,7.135,4.992
				c2.166,2.25,3.877,4.915,5.016,7.84c1.145,2.929,1.697,6.053,1.633,9.198v17.477c0.008,1.434-0.545,2.812-1.539,3.833
				C300.922-66.153,299.57-65.574,298.16-65.557z"/>
            <path fill="#34B77D" d="M489.145-65.561c-1.42,0-2.781-0.569-3.787-1.584c-1.002-1.019-1.564-2.396-1.564-3.833v-17.557
				c0.047-1.737-0.252-3.461-0.867-5.075c-0.623-1.614-1.555-3.092-2.738-4.336c-1.053-1.104-2.305-1.983-3.688-2.592
				c-1.389-0.609-2.875-0.928-4.387-0.948h-0.109c-6.346,0-11.857,5.274-12.07,11.581c-0.047,1.594,0.227,3.181,0.807,4.666
				c0.572,1.484,1.438,2.838,2.541,3.977c1.145,1.214,2.516,2.186,4.041,2.852c1.523,0.666,3.16,1.012,4.82,1.019
				c1.418,0,2.779,0.572,3.785,1.591c1.004,1.015,1.563,2.396,1.563,3.833s-0.559,2.815-1.563,3.833
				c-1.006,1.015-2.367,1.587-3.785,1.587c-3.09-0.017-6.143-0.663-8.98-1.904c-2.836-1.241-5.395-3.048-7.523-5.314
				c-2.102-2.179-3.744-4.765-4.83-7.607c-1.088-2.838-1.596-5.87-1.494-8.912c0.268-5.937,2.783-11.541,7.02-15.647
				c4.238-4.106,9.873-6.399,15.74-6.403h0.219c2.922,0.027,5.807,0.646,8.49,1.817c2.682,1.165,5.107,2.862,7.137,4.988
				c2.17,2.253,3.867,4.922,5.012,7.844c1.139,2.928,1.697,6.05,1.641,9.198v17.478c0.004,0.722-0.137,1.438-0.406,2.103
				c-0.273,0.666-0.676,1.271-1.178,1.777c-0.506,0.509-1.105,0.912-1.768,1.178C490.563-65.681,489.857-65.547,489.145-65.561z"/>
            <g>
				<defs>
					<rect id="SVGID_12_" x="-163.092" y="-158.338" width="180.603" height="146.527"/>
				</defs>
                <clipPath id="SVGID_13_">
					<use xlink:href="#SVGID_12_"  overflow="visible"/>
				</clipPath>
                <g clip-path="url(#SVGID_13_)">
					<path fill="#34B77D" d="M-156.144-60.855c-21.77-20.735,12.05-86.528,60.022-94.867c53.826-9.358,91.603,31.374,82.258,78.368
						c-10.306,51.819-78.005,77.736-97.316,59.337c-11.354-10.815,7.577-24.063-6.382-37.361
						C-131.518-68.675-145.98-51.171-156.144-60.855z"/>
                    <path fill="#BFE0BE" d="M-72.215-78.053c-1.254,1.704-2.599,3.334-4.03,4.888c-0.163,0.176-0.339,0.353-0.512,0.509
						c-0.936,0.972-1.937,1.87-2.995,2.702c-0.972,0.765-2,1.454-3.075,2.063c-3.095,1.804-6.556,2.862-10.123,3.082
						c-3.561,0.223-7.128-0.399-10.416-1.81c-3.557-1.498-6.708-3.844-9.188-6.835c-2.479-2.988-4.213-6.536-5.058-10.349
						l0.077,0.086c3.558,3.78,8.276,6.229,13.384,6.942c5.111,0.715,10.309-0.346,14.745-3.012l0.662-0.429
						c0.256-0.163,0.506-0.339,0.746-0.533c2.189-1.72,3.797-3.883,5.84-6.609l0.057-0.08l0.316-0.419
						c0.223-0.303,0.446-0.599,0.652-0.892C-78.161-85.184-75.176-81.614-72.215-78.053z"/>
                    <path fill="#E9F5F0" d="M-89.402-79.787c-4.439,2.666-9.637,3.724-14.745,3.012c-5.108-0.712-9.827-3.162-13.388-6.942
						l-0.073-0.086c0-0.15-0.066-0.31-0.093-0.469c-0.163-0.885-0.276-1.78-0.339-2.682c-0.303-5.531,1.248-11.005,4.399-15.531
						c3.155-4.525,7.73-7.836,12.978-9.397c3.401-0.998,6.982-1.191,10.466-0.552c-4.892,1.89-8.988,5.428-11.604,10.02
						c-2.612,4.596-3.581,9.96-2.742,15.191c0,0.146,0.04,0.296,0.066,0.439c0.376,1.677,1.148,3.238,2.246,4.553
						c1.098,1.311,2.493,2.336,4.063,2.988c1.404,0.612,2.925,0.882,4.446,0.785C-92.198-78.552-90.72-79.008-89.402-79.787z"/>
                    <path fill="#FFFFFF" d="M-40.438-70.482c-1.963,1.854-4.3,3.251-6.849,4.103c-2.549,0.849-5.248,1.128-7.914,0.819
						c-4.516-0.612-8.792-3.095-12.725-7.341c-0.363-0.386-0.702-0.772-1.042-1.178c-1.115-1.314-2.216-2.629-3.311-3.954
						c-2.962-3.561-5.947-7.134-8.925-10.695c-0.017-0.033-0.04-0.06-0.066-0.086c-0.063-0.093-0.133-0.186-0.206-0.273
						c-1.341-1.677-2.39-3.011-3.907-4.712c-1.328-1.644-2.895-3.075-4.648-4.24c-1.308-0.725-2.779-1.098-4.27-1.084
						c-0.889,0-1.777,0.12-2.629,0.369c-0.999,0.296-1.943,0.749-2.805,1.334c-1.654,1.088-2.982,2.619-3.837,4.419
						c-0.852,1.803-1.198,3.807-1.005,5.797c-0.516-3.215-0.353-6.502,0.479-9.647c0.928-3.531,2.675-6.786,5.091-9.494
						c2.416-2.709,5.438-4.799,8.812-6.09c2.379,0.436,4.672,1.271,6.782,2.466c1.341,0.762,2.603,1.661,3.767,2.682
						c1.534,1.338,2.975,2.782,4.31,4.326c1.008,1.141,1.854,2.146,2.655,3.125c2.01-2.615,4.063-5.288,6.066-7.937
						c0.459-0.612,0.925-1.225,1.371-1.833c1.092-1.417,2.682-2.339,4.439-2.572c1.757-0.236,3.53,0.243,4.945,1.324
						c1.411,1.082,2.346,2.682,2.602,4.456c0.26,1.777-0.186,3.581-1.231,5.031c-1.704,2.286-3.434,4.559-5.165,6.812l-3.241,4.143
						c-0.333,0.419-0.652,0.838-0.985,1.271l1.125,1.358c0.829,1.005,1.657,2.013,2.482,3.018l1.491,1.767
						c1.977,2.333,3.84,3.674,5.344,3.883c0.706,0.047,1.411-0.056,2.07-0.303c0.666-0.246,1.268-0.625,1.777-1.125
						c0.642-0.659,1.411-1.178,2.256-1.531c0.845-0.346,1.753-0.519,2.668-0.506c0.912,0.02,1.817,0.223,2.649,0.605
						c0.832,0.379,1.584,0.929,2.2,1.611c0.619,0.686,1.095,1.484,1.395,2.363c0.303,0.872,0.426,1.8,0.363,2.722
						c-0.063,0.925-0.31,1.827-0.729,2.652c-0.419,0.822-0.999,1.554-1.701,2.143H-40.438z"/>
				</g>
			</g>
		</g>
	</g>
</g>
    <g id="Layer_16">
	<g>
	</g>
        <g>
	</g>
        <g>
	</g>
        <g>
	</g>
        <g>
	</g>
        <g>
	</g>
</g>
</svg>
